# xmcd
#
# Track frame offsets:
#	150
#	33974
#	61601
#	93941
#	127222
#	157837
#	185509
#	218872
#	246545
#	274750
#	301300
#
# Disc length: 4371
#
# Revision: 3
# Processed by: cddbd v1.5.1PL0 Copyright (c) Steve Scherf et al.
# Submitted via: CDex 1.30Release
# Normalized: r1:DSETVAR2,TDELIM( - );r2:TSWAP
#
DISCID=9511110b
DTITLE=Various Artist - Motiv8tion disc 2
DYEAR=1900
DGENRE=Blues
TTITLE0=Pulp - Disco 2000
TTITLE1=Dubstar - Stars
TTITLE2=Mary Kiani - When I call your name
TTITLE3=Sleazesisters feat Vikki Shepherd - Sex
TTITLE4=Teez - Should have known better
TTITLE5=N Trance - Turn up the power
TTITLE6=Heaven 17 - Designing heaven
TTITLE7=Ann Consuelo - See the day
TTITLE8=Open Arms feat Rowetta - Hey Mr DJ
TTITLE9=Michelle Gayle - Baby don't go
TTITLE10=Alabama 3 - Ain't goin' to goa
EXTD=ID3G:   0
EXTT0=
EXTT1=
EXTT2=
EXTT3=
EXTT4=
EXTT5=
EXTT6=
EXTT7=
EXTT8=
EXTT9=
EXTT10=
PLAYORDER=
